PathFileType	4	(X/Y/Z)	1103211_Jog01.trc	
DataRate	CameraRate	NumFrames	NumMarkers	Units	OrigDataRate	OrigDataStartFrame	OrigNumFrames
300	300	4	69	mm	300	812	258
Frame#	Time	CLAV			STRN			RSHO			LSHO			C7			T10			RBAK			RASI			LASI			RPSI			LPSI			LGTR			RGTR			LHJC			RHJC			LANK			RANK			LHEE			RHEE			LMT5			RMT5			LTOE			RTOE			RELB			RWRA			RWRB			RFIN			LELB			LWRB			LWRA			LFIN			RFP1			RFP2			RFP3			RFM1			RFM2			RFM3			RFA1			RFA2			RFA3			LFP1			LFP2			LFP3			LFM1			LFM2			LFM3			LFA1			LFA2			LFA3			LKNE			RKNE			RTP1			RTP2			RTP3			RTA1			RTA2			RTA3			LTP1			LTP2			LTP3			LTA1			LFHD			LBHD			RFHD			RBHD			LUPA			LFRA			RUPA			RFRA			
		X1	Y1	Z1	X2	Y2	Z2	X3	Y3	Z3	X4	Y4	Z4	X5	Y5	Z5	X6	Y6	Z6	X7	Y7	Z7	X8	Y8	Z8	X9	Y9	Z9	X10	Y10	Z10	X11	Y11	Z11	X12	Y12	Z12	X13	Y13	Z13	X14	Y14	Z14	X15	Y15	Z15	X16	Y16	Z16	X17	Y17	Z17	X18	Y18	Z18	X19	Y19	Z19	X20	Y20	Z20	X21	Y21	Z21	X22	Y22	Z22	X23	Y23	Z23	X24	Y24	Z24	X25	Y25	Z25	X26	Y26	Z26	X27	Y27	Z27	X28	Y28	Z28	X29	Y29	Z29	X30	Y30	Z30	X31	Y31	Z31	X32	Y32	Z32	X33	Y33	Z33	X34	Y34	Z34	X35	Y35	Z35	X36	Y36	Z36	X37	Y37	Z37	X38	Y38	Z38	X39	Y39	Z39	X40	Y40	Z40	X41	Y41	Z41	X42	Y42	Z42	X43	Y43	Z43	X44	Y44	Z44	X45	Y45	Z45	X46	Y46	Z46	X47	Y47	Z47	X48	Y48	Z48	X49	Y49	Z49	X50	Y50	Z50	X51	Y51	Z51	X52	Y52	Z52	X53	Y53	Z53	X54	Y54	Z54	X55	Y55	Z55	X56	Y56	Z56	X57	Y57	Z57	X58	Y58	Z58	X59	Y59	Z59	X60	Y60	Z60	X61	Y61	Z61	X62	Y62	Z62	X63	Y63	Z63	X64	Y64	Z64	X65	Y65	Z65	X66	Y66	Z66	X67	Y67	Z67	X68	Y68	Z68	X69	Y69	Z69	

194	0.64333	1940.08643	1322.32227	1.78722	1969.83057	1149.79065	5.57144	1850.18896	1373.56482	156.09529	1888.58594	1361.54297	-180.86891	1802.83691	1394.20190	-17.42281	1735.95313	1107.67627	-4.52219	1731.43933	1313.71350	73.78567	1881.81372	900.50067	99.78822	1864.90979	912.95630	-122.24455	1699.38892	920.98700	51.92522	1693.30603	921.73682	-45.73520	1779.35132	825.44061	-169.84248	1827.09961	824.15253	163.58893	1790.83325	835.80029	-89.10936	1799.43799	827.16217	69.40852	1576.48657	108.61578	-52.61992	1666.31592	241.21172	133.00069	1504.36011	93.13534	1.63329	1606.20581	276.61795	78.69862	1669.39966	35.21167	-92.99168	1697.25195	127.55104	184.55916	1724.30420	57.81984	-27.66138	1747.62305	102.21902	120.29535	1661.01917	1162.01477	284.60519	1770.84827	949.94824	229.29700	1729.51416	923.56946	285.92896	1820.63367	897.82373	261.95313	1793.15356	1089.81726	-300.87103	2002.00854	1020.14093	-193.09993	1987.60986	1082.51465	-165.54903	2071.71948	1080.16602	-172.91829	1859.33203	735.33704	172.89468	1909.21375	656.11780	174.97209	1951.26831	572.94830	168.14282	1894.63757	805.66681	150.49840	1945.61548	729.44525	152.17680	1990.76685	649.92218	143.31543	1938.68970	784.15869	92.41817	1988.41040	701.23975	90.26009	2020.70801	616.78131	85.55260	1776.07153	722.17413	-167.20421	1781.01050	613.01563	-145.35704	1780.34253	537.73517	-127.30507	1835.55042	779.88678	-166.50102	1839.69116	673.51978	-156.54161	1843.96350	583.55554	-137.20039	1897.99927	729.00616	-120.87971	1901.06372	633.16815	-92.44872	1886.03430	545.72571	-70.48091	1772.44519	442.90067	-108.77412	1967.54712	481.77255	150.83829	1888.94629	420.35739	163.78851	1806.22119	360.17917	155.05904	1741.10754	306.16400	141.32211	1953.71704	393.86392	102.62041	1886.49023	346.20639	97.77322	1815.53821	299.15417	97.21296	1723.90918	327.56946	-109.58882	1683.06018	261.87000	-93.62852	1639.99927	189.84978	-74.13359	1793.66101	357.21921	-47.01607	1949.58459	1587.94678	-92.35033	1833.89941	1569.02271	-104.92339	1946.88733	1589.42578	55.26610	1807.23999	1573.44116	57.80391	1866.23291	1252.24390	-249.40459	1929.03955	1043.50488	-247.71239	1712.09363	1228.88306	255.68478	1684.46851	1070.50586	301.54626	
195	0.64667	1948.92529	1324.70874	2.67584	1978.94983	1152.19446	6.54245	1858.02466	1375.94739	156.27361	1898.43384	1364.30798	-180.09645	1811.77759	1396.38391	-17.31145	1745.15149	1109.75830	-4.87532	1740.04553	1315.77673	73.39233	1890.85864	902.66565	100.17112	1874.03809	914.93201	-121.83852	1708.50452	923.57825	52.22643	1702.46899	924.12054	-45.30051	1787.55981	827.39569	-169.26775	1836.39368	827.10028	164.13359	1799.77551	837.98096	-88.66219	1808.32349	829.48438	69.86641	1577.94470	110.36351	-53.15582	1684.01099	236.11349	132.80170	1505.75256	96.17393	1.09642	1623.00610	269.32303	78.13115	1669.60498	35.29180	-93.05440	1718.39526	123.78444	185.05167	1724.72803	57.51360	-27.80028	1769.78430	99.82870	121.09913	1667.44751	1166.11914	284.40643	1777.31177	954.07068	229.49655	1735.67554	927.63947	285.79105	1826.97485	901.83838	262.25629	1804.88306	1091.90210	-300.33783	2013.68994	1025.51648	-190.40987	1998.36060	1087.99121	-163.64653	2082.45557	1086.67920	-170.49983	1869.07495	738.45435	173.30544	1919.52588	659.53503	175.12579	1962.14551	576.67365	167.98865	1903.96643	808.92584	150.73343	1955.29944	733.21136	152.15121	2001.01050	654.03485	143.18889	1947.60522	787.89148	92.32723	1997.98022	705.28583	90.04792	2030.97717	621.11639	85.32049	1782.92761	724.28949	-166.79027	1785.99854	615.19080	-145.00652	1784.02515	539.90137	-126.91978	1843.28418	781.25916	-165.98882	1845.75134	674.85498	-155.87495	1848.48364	584.88800	-136.60704	1904.79041	729.54211	-120.08202	1906.23181	633.57941	-91.59401	1889.74597	546.32355	-69.80962	1774.52063	445.11887	-108.71910	1978.74768	485.31833	150.56975	1901.33423	421.71863	163.52837	1820.35840	359.13599	154.83366	1756.86389	303.18756	141.05338	1967.00964	396.78259	102.68143	1901.15881	347.21805	97.95181	1831.59448	298.18533	97.14224	1725.34094	329.85562	-109.71043	1684.36560	264.18069	-93.87358	1641.29919	192.07741	-74.47087	1795.22668	359.05936	-47.05154	1958.56189	1590.07666	-91.81612	1842.83130	1571.14124	-104.48924	1955.72412	1591.63464	55.78397	1816.07935	1575.71533	58.17720	1876.96765	1254.92639	-248.85063	1940.81274	1047.60205	-245.81255	1718.87585	1232.61841	255.52496	1690.75012	1074.66504	301.44565	
196	0.65000	1957.77917	1327.14490	3.56744	1988.09375	1154.64917	7.51605	1865.90552	1378.36584	156.45653	1908.25989	1367.12439	-179.30336	1820.73828	1398.60913	-17.17595	1754.37598	1111.88635	-5.23714	1748.68750	1317.88391	73.01974	1899.93701	904.88245	100.57600	1883.23999	916.94708	-121.40599	1717.66455	926.22717	52.51462	1711.69043	926.55457	-44.87715	1795.86292	829.41217	-168.68983	1845.67664	830.10333	164.68394	1808.78247	840.20667	-88.20164	1817.24536	831.86035	70.33951	1579.53137	112.21527	-53.73488	1701.85583	230.97757	132.58376	1507.29480	99.39508	0.51640	1640.03076	261.93945	77.53896	1669.83960	35.39279	-93.13026	1739.67261	120.10130	185.52336	1725.18494	57.20176	-27.94943	1792.05200	97.57534	121.89056	1673.94165	1170.24646	284.17505	1783.87878	958.22412	229.66888	1741.94946	931.73761	285.62506	1833.42773	905.89307	262.53574	1816.51331	1094.11438	-299.81653	2025.20227	1030.96399	-187.74385	2008.97217	1093.53564	-161.78902	2093.03882	1093.22632	-168.12361	1878.76331	741.61072	173.72276	1929.72656	662.96075	175.27727	1972.84546	580.38660	167.81343	1913.27612	812.20795	150.98743	1964.92029	736.96448	152.14456	2011.14087	658.10992	143.08174	1956.53162	791.61981	92.27486	2007.48755	709.30048	89.86638	2041.12231	625.40619	85.10616	1789.87256	726.48724	-166.39116	1791.06555	617.47961	-144.67174	1787.78662	542.20490	-126.55107	1851.10291	782.70056	-165.47203	1851.88477	676.29120	-155.20863	1853.07129	586.35040	-136.01869	1911.63672	730.17426	-119.26161	1911.44287	634.10773	-90.73070	1893.50757	547.05743	-69.14345	1776.67993	447.49844	-108.68407	1989.72144	488.81754	150.29634	1913.57495	422.98999	163.27402	1834.45361	358.00763	154.60876	1772.66882	300.14307	140.77423	1980.12341	399.68546	102.73398	1915.73315	348.22388	98.11398	1847.64270	297.21375	97.06100	1726.85754	332.30606	-109.87093	1685.76746	266.64307	-94.16701	1642.71021	194.44525	-74.86360	1796.87964	361.05917	-47.12624	1967.53723	1592.24902	-91.26778	1851.78027	1573.29541	-104.04298	1964.56238	1593.88818	56.31519	1824.92200	1578.02502	58.56540	1887.65479	1257.69214	-248.29442	1952.45032	1051.78845	-243.93715	1725.72412	1236.37817	255.34357	1697.10889	1078.84900	301.31378	
197	0.65333	1966.64746	1329.62329	4.46106	1997.26038	1157.14734	8.49144	1873.83423	1380.81287	156.64551	1918.06274	1369.98145	-178.49123	1829.71936	1400.87061	-17.01616	1763.62463	1114.05481	-5.60542	1757.36584	1320.02954	72.66964	1909.04663	907.14490	101.00397	1892.51599	918.99768	-120.94600	1726.86743	928.92828	52.78908	1720.96912	929.03204	-44.46736	1804.25891	831.48480	-168.11028	1854.94556	833.15430	165.23813	1817.85449	842.47284	-87.72856	1826.20227	834.28394	70.82689	1581.25269	114.17090	-54.35582	1719.85425	225.81610	132.35066	1508.99536	102.79682	-0.10448	1657.28455	254.48438	76.93026	1670.10693	35.51965	-93.21931	1761.08301	116.51356	185.97250	1725.67688	56.88869	-28.10849	1814.41846	95.47255	122.66508	1680.50171	1174.38538	283.91083	1790.54736	962.39429	229.81822	1748.33228	935.85126	285.43497	1839.98828	909.97272	262.79681	1828.04492	1096.44080	-299.31104	2036.54773	1036.46411	-185.10735	2019.44702	1099.12854	-159.97963	2103.47241	1099.78857	-165.79033	1888.39514	744.79785	174.14507	1939.81372	666.38409	175.42581	1983.36523	584.07422	167.61787	1922.56543	815.50653	151.26108	1974.47864	740.69452	152.15828	2021.15771	662.13519	142.99580	1965.47144	795.33630	92.26228	2016.93469	713.27399	89.71740	2051.14453	629.63843	84.91161	1796.90503	728.76208	-166.00917	1796.21436	619.87567	-144.35576	1791.63220	544.63989	-126.20430	1859.00439	784.20618	-164.95415	1858.09180	677.82269	-154.54762	1857.72974	587.93713	-135.44087	1918.54211	730.89764	-118.42873	1916.70361	634.74780	-89.86946	1897.32751	547.92194	-68.49080	1778.93213	450.03201	-108.67018	2000.46997	492.25635	150.02048	1925.67456	424.16397	163.02838	1848.51221	356.79532	154.38779	1788.52747	297.03806	140.48959	1993.05713	402.56284	102.77847	1930.21216	349.22000	98.26073	1863.68311	296.24167	96.97302	1728.46777	334.91412	-110.07036	1687.27441	269.25134	-94.50877	1644.24048	196.94858	-75.31163	1798.63025	363.21173	-47.24165	1976.51050	1594.45654	-90.70576	1860.74487	1575.47668	-103.58492	1973.40210	1596.17859	56.85933	1833.76794	1580.36255	58.96858	1898.29248	1260.53003	-247.73732	1963.95410	1056.04749	-242.09102	1732.64075	1240.15222	255.14151	1703.54028	1083.04468	301.15189	
